<?xml version="1.0" encoding="utf-8"?>
<!DOCTYPE svg PUBLIC "-//W3C//DTD SVG 1.1//EN" "http://www.w3.org/Graphics/SVG/1.1/DTD/svg11.dtd">
<svg version="1.1" xmlns="http://www.w3.org/2000/svg" xmlns:xlink="http://www.w3.org/1999/xlink" x="0px" y="0px" width="512px"
	 height="512px" viewBox="0 0 512 512" enable-background="new 0 0 512 512" xml:space="preserve">
<g id="layer_1">
	<path fill="#D81F1D" d="M261.734,135.373c0,0-24.686-55.904,1.346-117.04c7.561-15.348,27.541-1.688,17.591,9.554
		c-4.886,5.523-10.736,25.75-13.152,48.069c-2.498,23.14-1.386,48.437,2.56,56.783C274.963,143.074,261.734,135.373,261.734,135.373
		z"/>
	<path fill="#D81F1D" d="M372.942,119.119c-58.729-20.689-85.666-3.538-108.665-7.071c-22.992,3.533-49.936-13.619-108.666,7.071
		C98.72,139.164,43.762,210.46,79.131,334.276c30.964,108.355,90.064,144.033,124.604,151.335
		c27.911,5.893,47.348-2.128,60.542-2.128c13.201,0,32.638,8.021,60.55,2.128c34.538-7.302,93.646-42.979,124.604-151.335
		C484.808,210.46,429.835,139.164,372.942,119.119z"/>
	<path fill="#D32020" d="M277.569,87.87c-3.732-17.654,4.846-42.536,23.315-57.365c22.895-18.381,45.282-21.857,65.935-14.91
		c20.646,6.943,39.246,8.299,46.065,2.181c-2.223,16.207-10.978,39.329-42.643,51.798c-31.664,12.477-44.549,3.767-64.884,6.617
		C291.168,78.179,277.569,87.87,277.569,87.87z"/>
	<line fill="none" x1="235.333" y1="408.635" x2="235.333" y2="408.634"/>
</g>
<g id="layer_3">
	<g>
		<path fill="none" stroke="#FFFFFF" stroke-width="8" stroke-miterlimit="10" d="M179,278c0-19.622,11.182-35.5,25-35.5"/>
		<path fill="none" stroke="#FFFFFF" stroke-width="8" stroke-miterlimit="10" d="M229,278c0-19.622-11.182-35.5-25-35.5"/>
	</g>
	<g>
		<path fill="none" stroke="#FFFFFF" stroke-width="8" stroke-miterlimit="10" d="M300,278c0-19.622,11.182-35.5,25-35.5"/>
		<path fill="none" stroke="#FFFFFF" stroke-width="8" stroke-miterlimit="10" d="M350,278c0-19.622-11.182-35.5-25-35.5"/>
	</g>
	<circle fill="#FFFFFF" cx="142" cy="324" r="24"/>
	<circle fill="#FFFFFF" cx="387" cy="324" r="24"/>
	<path fill="none" stroke="#FFFFFF" stroke-width="6" stroke-miterlimit="10" d="M212.17,368.499c0,0,5.272,49.961,52.837,48.955
		c47.565-1.009,51.894-48.955,51.894-48.955"/>
</g>
</svg>
